<svg width="20" height="27" viewBox="0 0 20 27" fill="none" xmlns="http://www.w3.org/2000/svg">
<path d="M6 21.2119C4.9 21.2119 4.01 22.38 4.01 23.8076C4.01 25.2353 4.9 26.4033 6 26.4033C7.1 26.4033 8 25.2353 8 23.8076C8 22.38 7.1 21.2119 6 21.2119ZM0 0.446289V3.04199H2L5.6 12.8927L4.25 16.0724C4.09 16.4358 4 16.8641 4 17.3184C4 18.746 4.9 19.9141 6 19.9141H18V17.3184H6.42C6.28 17.3184 6.17 17.1756 6.17 16.9939L6.2 16.8382L7.1 14.7227H14.55C15.3 14.7227 15.96 14.1905 16.3 13.3859L19.88 4.96281C19.96 4.78111 20 4.56048 20 4.33984C20 3.62603 19.55 3.04199 19 3.04199H4.21L3.27 0.446289H0ZM16 21.2119C14.9 21.2119 14.01 22.38 14.01 23.8076C14.01 25.2353 14.9 26.4033 16 26.4033C17.1 26.4033 18 25.2353 18 23.8076C18 22.38 17.1 21.2119 16 21.2119Z" fill="#009688"/>
</svg>
